<svg xmlns="http://www.w3.org/2000/svg" width="511.801" height="122.449" viewBox="0 0 13370 3199" shape-rendering="geometricPrecision" text-rendering="geometricPrecision" image-rendering="optimizeQuality" fill-rule="evenodd" clip-rule="evenodd"><defs><style>.fil2{fill:#a19896;fill-rule:nonzero}</style></defs><g id="Camada_x0020_1"><g id="_1046708848"><path fill="none" d="M0 0h13370v3199H0z"/><path d="M3022 169H1761c-104 0-188 84-188 188 0-104-85-188-189-188H0v161h125c112 0 207 73 241 173l818 2219h3v-749s4-69-23-95v-12h-1c-5-8-13-17-18-25-5-10-7-21 1-32v-7s-46-31-61-54c-3-4-4-7-5-11-2-7 0-20 0-20 4-5 19-18 19-18v-4l-3-3-1-1v-1c-3-3-5-8-5-13s2-10 4-14l5-4 10-9v-32l14-11v-175l-19-22s-11-2-12-11c-7-6-18-18-23-24l-1-1c-1-1-1-2-1-2v-16l37-36 26-28v-27l9-11v-88l-11-13v-19l6-6v-22l-6-11 19-17c-1-2-1-5-1-7 0-18 17-32 38-32s38 14 38 32c0 2 0 5-1 7h1v12l17 31v15l12-12 22 6v-8l-1-2-5-5-3-3 29-25 25 6v-11l-2-2-6-5-2-2 30-27 25 7v-14l-1-1-6-4-3-3 31-28 13 5v-76l-9-13v-16l9-14v-29l7-7c-1-3-2-7-2-11 0-20 19-37 42-37s42 17 42 37c0 4-1 8-2 11l9 3v20l-1 1-2 2v10l7 3v17l-2 10-2 19-1 6h-4v24l30 8v7l-8 5v44l35 10v-37l-5-4 12-15 59 15v4l-3 2-6 6v44l33 9v-33l-4-6v-6l14-11 54 15v4l-2 2-7 5-2 2v42l34 9v-33l-5-6v-6l15-11 56 15v4l-1 3-4 6-5 8v35l31 8v-28l-6-10v-5l17-12 51 14v5l-1 1-7 5-1 1v43l30 8v-31l-6-7v-4l14-14 10 3v-18l-4-5-2-13 4-7-2-23 6-8s5-1 8-2c0-3-1-5-1-8 0-19 18-34 40-34s40 15 40 34c0 3 0 6-1 9l9 15-3 4-5 6v7l16 19v16l-5 5-6 7-5 5v73l16 22v18l44 49 16 36v20l-25 19-1 1v2c0 1 0 4-1 6-1 1-1 2-1 3-2 2-5 4-9 5 0 2-1 7-6 8-1 3-2 7-7 7h-1v152l5 2 9 21v21s26 68 29 74c1 3 3 6 4 10v1c0 1 0 2 1 3v8c1 3 1 5 1 8-2 24-21 34-49 49-5 5-12 10-14 14v2c3 4 5 13 1 25 0 0 0 1-1 2-3 8-10 18-22 30l-1 1c0 1 0 1-1 1-12 14-26 54-26 120v819h1l818-2219c34-100 129-173 242-173h125V169h-124z" fill="#803031" fill-rule="nonzero"/><path class="fil2" d="M2010 1751c-3 8-10 18-23 30v1l-1 1c-5-8-10-20-12-33 0-1 0-1 1-1 0-1 1-1 1 0 7 3 28 3 34 2zM1163 1832c-7-2-12 2-17 7 0 0-1 1-1 2 5 8 13 17 18 25 3-4 6-14 7-22v-3-2c0-5-2-6-7-7zM1622 1829l-1-1-35-6c-1-1-1 0-1 0-1 0-1 0-1 1v87l1 1 33 6h1s1 0 1-1l-1-1c-4-10-6-20-7-31-2-19 1-38 10-54v-1zM1810 1952h1l50 10h1v-88c0-1 0-1-1-1l-37-7h-1v1c2 6 3 13 3 19 3 24-3 46-15 65-1 0-1 0-1 1zM1704 1625l-16 22v3s1 1 2 1l10 2h1l18-7 34 6h2l18-12s1-1 0-2c0-1 0-2-1-2l-66-12c-1 0-2 0-2 1zM1738 1626c2 0 4-1 4-3s-1-4-3-4l-25-5c-2 0-4 1-4 3s1 4 3 4l25 5zM2024 1708c28-15 47-26 49-49 0-6-1-10-2-14v-3-1c-10-5-20-9-30-12-20-7-40-10-60-10-30 0-58 8-78 22-1 1-1 2-1 3 14 26 34 51 67 80 0 0 1 1 2 1v-1c6-1 11-2 17-2 8 0 15 2 22 4v-2-2c2-4 9-9 14-14zM1691 1915l-36 3c-1 0-2 1-2 2 0 2 1 2 2 3l48 9c1 0 2-1 2-2 1 0 1-2 0-2l-12-12c0-1-1-1-2-1zM1736 1923h-1l-1 1-8 7c0 1-1 1 0 2 0 1 0 2 1 2l50 10c1 0 2-1 2-2s0-2-1-3l-42-17zM1435 1661c-9 0-17 2-23 7-1 0-1 1-1 2 4 9 11 19 18 26l1 1c6-4 19-1 19-1h2c7-8 12-16 15-24 0-1 0-1-1-2-8-6-19-9-30-9zM1118 1661c-7 2-10 8-9 15 2 6 7 9 12 9h4c17-5 40-10 71-7 3 0 6-1 9-3l139-112c5-5 6-13 2-18-5-5-13-6-18-2l-135 109c-32-2-57 4-75 9zM1439 1460c0 5 5 9 10 9 27 0 52 6 71 18 1 1 3 2 5 2 3 0 6-2 7-4 3-5 2-10-2-13-22-14-51-21-81-21-5 0-10 4-10 9zM1210 1722c-11-3-24-4-37-4-39 0-73 12-88 30 15 24 61 53 61 53 5-2 11-3 17-3 7 0 14 2 19 4 12-27 26-57 28-80zM1591 1387c1 4 2 9 1 13 0 1 1 2 2 3l11 2v1c1 0 2-1 2-1l22-34 17 4h1c1 0 2-1 3-3 0-1-1-3-3-4l-124-32c-1-1-3 0-4 2 0 2 1 4 3 4l37 10c16 7 27 21 32 35zM1551 1330c-1 0-1 0-1-1l-31-8c-2 1-3 2-4 4 0 2 1 5 4 5l132 36h1c2 0 4-1 5-3 0-3-1-5-4-6l-30-8c1-6 0-11-2-18-7-22-30-41-52-41-17 0-27 12-27 28l10 3c2 0 4 3 3 5 0 2-2 4-4 4zM1672 1375c-2 0-4 1-4 3-1 1 0 3 2 4l26 7c17 6 27 20 32 34 1 5 2 10 2 14 0 1 0 2 1 2l11 3h1s1 0 2-1l21-34 19 5c2 0 3-1 4-3 0-1-1-3-3-4l-114-30zM1688 1366h-1l-21-6c-2 1-3 2-4 4s1 5 3 5l125 34h1c2 0 4-2 4-4 1-2 0-5-3-5l-31-9c0-5-1-11-2-17-8-23-31-41-52-41-17 0-28 12-28 28l10 2c3 1 4 3 4 6-1 2-3 3-5 3zM1919 1441l-109-29c-2-1-4 0-4 2-1 2 0 4 2 4l25 7c17 7 27 21 32 35 1 5 2 9 1 13 0 2 1 3 2 3l11 3c1 0 2-1 2-1l22-34 14 4h1c1 0 3-1 3-3 1-2-1-3-2-4zM1825 1403h-1l-19-5c-2 0-3 1-4 3s1 5 3 5l116 31c0 1 1 1 1 1 2 0 4-2 4-4 1-2-1-5-3-5l-25-7c1-5 0-11-2-17-7-23-30-41-52-41-16 0-27 11-27 27l10 3c2 0 4 3 3 5 0 2-2 4-4 4zM1905 1599c2 0 4 0 5-1 12-7 27-10 42-10 6 0 11-5 11-11 0-5-5-10-11-10-17 0-34 4-48 11l-343-76h-3c-4 0-9 4-10 8-1 6 3 11 8 13l347 76h2z"/><path class="fil2" d="M1092 1399c1 9 12 11 12 11l18 22v9c1 0 1-1 2-1l24-21 47 1h1l172-153c1 0 1-1 1-1v-41l31-27 50-3 48 13 12 24c0 1 0 1 1 1l405 108h1l59-5 40 11 8 12h1c5 0 6-4 6-7 6-2 6-6 6-8 5-1 8-3 9-5 1-1 1-2 2-3l-13-23s-1-1-2-1l-58-17h-1l-65 2-369-98-24-28c0-1-1-1-1-1l-64-20h-1l-66 8h-1l-205 179-73 5h-1l-36 32 1 1c5 6 16 18 23 24zm10-1l25-23c1-1 2-1 2-1l57-5 171-147c2-1 4-1 5 1 2 1 2 3 0 4l-172 148s-1 1-2 1l-57 5-24 22c-1 0-2 1-3 1s-2-1-2-1c-2-2-2-4 0-5z"/><path class="fil2" d="M1449 1106l-80 9h-1l-65 58c0 1-1 2 0 3 0 0 0 1 1 1l33 9h2l42-36 71-8 66 19 27 32c0 1 1 1 1 1l362 96h1l65-2 62 17 13 23 1-1 26-19v-7l-16-29c0-1-1-1-1-1l-76-20h-1l-96 1-313-84-30-35s0-1-1-1l-92-25c0-1-1-1-1-1zM1221 1490l-19-1-21 18 15 13 1-1 3-3c4-3 9-4 13-4 9 0 17 5 20 14h1l4-4 4-42s0-1 1-1l23-20c3-3 8-4 12-4 9 0 17 6 20 14l5-4 4-42v-1l24-20c12-7 26-1 31 11l5-4v-95c-2-1-5-1-7-1-10 2-19 18-21 35 0 6 1 11 2 16l11 8c1 1 1 2 1 3-1 2-2 2-3 2l-19-1-21 18-10 8c-1 1-3 1-4 0s-1-1-1-2 0-2 1-2l15-14c-2-10-8-16-15-14-10 1-19 17-21 34 0 6 1 11 2 16l11 8c1 1 1 2 1 3-1 2-2 2-3 2l-19-1-20 17-12 10c-1 1-3 1-4 0s-1-2-1-2v-1s0-1 1-2l15-13c-2-10-8-16-15-15-10 2-19 18-21 35 0 6 1 11 2 16l11 8c1 0 2 2 1 3 0 1-2 2-3 2zM1473 1649c21-16 63-49 71-92 0-1 0-2-1-2-19-16-56-31-98-31-28 0-68 7-95 43-1 1-1 1 0 2 8 21 25 60 55 82h3c5-3 14-7 26-7 11 0 21 3 31 9 0 1 0 1 1 1 0 0 1 0 1-1 2-1 4-3 6-4zM1366 1786l-31-8-14 11h-2c-1 0-1-1-1-2v-2c1-28-5-51-17-63-7-7-16-9-25-6-1 8-2 12-4 16-3 4-9 6-10 7h-1l-9-2c-16 23-27 58-27 92-1 6 0 15 0 20l21-3c4 1 6 3 6 7s-2 7-6 7h-19l-36 27v2-2l38 22 2-1 1-1s6-4 14-4c12 0 24 6 37 17 2 2 4 3 5 5h1c6 4 14 4 21-1 17-12 27-52 21-90 0 0 0-2 1-2l34-26v-20zM1248 1916h-1l-23 16v1l-1 90 1 1h1l30-21v-1c-6-14-10-33-9-55 0-9 1-20 3-30l-1-1z"/><path class="fil2" d="M1342 1942h1l14-10 1-1v-90l-1-1h-1l-15 11c-1 1-1 1-1 2 5 12 7 29 6 47 0 13-2 27-5 41 0 0 0 1 1 1zM1292 1968h-1l-12 16c-1 0-1 1 0 1 0 1 0 1 1 1v-1l16-11h1c0-1 0-1-1-1l-3-5h-1zM1305 1958v1l3 5c0 1 0 1 1 1h1l15-11c1 0 1-1 1-1-1-1-1-1-2-1l-18 6h-1zM1267 1674h-1l-29 23s-1 1-1 2 1 1 2 2l15 9h3l17-14 18 2h1l17-8c1-1 1-2 1-2 0-1-1-2-2-2l-40-12h-1zM1299 1677c1 0 2-1 2-1 3-4 4-9 3-13-2-4-7-6-13-6-3 0-7 0-11 2l-9 6v2c0 1 1 2 1 2l27 8zM1225 1161c1 0 1 0 2-1l25-23 20 6c2 0 4-1 4-2 1-2 0-4-2-5l-21-6c-2 0-3 0-4 1l-27 24c-1 1-1 3 0 5 1 1 2 1 3 1zM1294 1100l23 5c2 1 4-1 5-2 0-2-1-4-3-5l-25-6c-1 0-3 0-3 1l-24 22 4 5 23-20zM1339 1059l17 4c2 1 4 0 4-2 1-2-1-4-2-4l-19-5c-1-1-3 0-3 1l-26 22 6 5 23-21zM1385 1017l11 3c2 1 4-1 4-2 1-2 0-4-2-5l-13-3c-1 0-3 0-4 1l-25 23 6 4 23-21zM1487 982l23 6 8-5-31-8zM1552 1006l4-6 46 12 6-5-52-14c-2 0-3 0-4 1l-6 7c-1 2 0 4 1 5 2 1 4 1 5 0zM1641 1030l6-5 43 11 7-5-50-14s-2 0-2 1l-8 6c-2 1-2 3-1 5 1 1 3 2 5 1zM1727 1052l6-4 50 13 3-6-52-15c-1 0-2 0-3 1l-8 6c-1 1-1 3 0 4 1 2 3 2 4 1zM1814 1076l8-5 41 11 7-5-48-13h-3l-9 7c-1 1-2 3-1 4 2 2 4 2 5 1zM1897 1097l5-5 8 3v-8l-8-2c-1 0-2 0-3 1l-7 6c-1 1-1 4 0 5s3 2 5 0zM2001 1063l-35-12h-3l-42 11c-2 1-4 3-3 6 0 2 3 3 5 3l41-11 32 11 8 14 6-7-7-13c0-1-1-1-2-2zM1917 1019l41-11 32 11 9 17v-5l5-6-7-12c0-1-1-2-2-2l-35-12c-1-1-2-1-3 0l-42 11c-3 0-4 3-4 5 1 3 4 4 6 4zM1402 921l12-11 31 1 38 10 10 17 2-19-3-5c0-2-2-3-3-3l-42-12h-35c-2 0-3 0-4 1l-13 12c-3 2-3 6-1 8 3 3 6 3 8 1zM1408 873l12-11 31 1 38 10 3 4 1-1v-14l-40-11h-35c-2 0-3 0-4 1l-13 12c-3 2-3 6-1 8 2 3 6 3 8 1zM1141 1102c2 0 3 0 5-2l7-8 61 1c4 0 6-3 6-6s-2-6-5-6h-64c-2 0-3 0-4 2l-10 9c-2 3-2 6 1 9 1 1 2 1 3 1zM1141 1159c2 0 3 0 5-1l7-9 61 1h1c3 0 5-3 5-6s-2-6-5-6h-64c-2 0-3 1-4 2l-10 10c-2 2-2 6 1 8 1 1 2 1 3 1zM1803 1800l-1-1c-1-1-1-3-1-5 1-3 3-5 7-5h1l19 3c0-3 0-7-1-11-4-43-33-82-72-98l-7 14c0 1-1 1-2 1h-1l-1-1v-2-1c1-1 0-2 0-3-1-1-1-2-2-2l-17-3c-2-1-4 1-4 3 0 1-1 1-2 2-1 0-2-1-2-2l-4-13c-43 3-76 36-82 80l25 5c2 0 4 1 4 2 1 2 2 4 2 5-1 2-2 4-3 5h-2l-81-15 10 32h1l39 7c1 0 1 1 1 2 12 51 55 90 101 90 35 0 65-22 78-57 0 0 1-1 2-1l53 10c7-10 16-23 18-27l-76-14z"/><path class="fil2" d="M2927 528v103h-130l-17 47h147v98h-183l-18 47h201v98h-237l-17 47h254v98h-290l-18 47h308v98h-344l-17 47h361v98h-397l-18 47h415v98h-451l-17 47h468v98h-504l-18 47h522v57c0 13-1 27-1 40h-556l-18 48h572c-2 33-6 65-10 97h-598l-18 48h608c-5 33-12 65-20 97h-623l-18 48h628c-10 33-21 65-33 97h-631l-17 48h630c-14 33-30 65-46 97h-620l-18 48h612c-19 33-40 66-61 97h-587l-17 48h570c-26 33-52 66-81 97h-525l-18 48h498c-35 34-71 67-109 97h-558v-826s0-1-1-1l-276-51c-1 0-1 1-1 1v877h-227v-804h-2c-5 0-8-4-6-9 1-3 4-6 8-8v-35l-132 92v764H726c-38-30-75-63-109-97h546l-17-48H571c-28-31-55-64-80-97h619l-18-48H457c-22-31-42-64-61-97h661l-18-48H370c-17-32-32-64-46-97h679l-18-48H305c-12-32-22-64-32-97h677l-18-48H260c-8-32-15-64-21-97h657l-17-48H232c-5-32-8-64-10-97h621l-18-48H220c-1-13-1-27-1-40v-57h570l-17-47H219v-98h517l-18-47H219v-98h463l-17-47H219v-98h410l-18-47H219v-98h356l-17-47H219v-98h303l-18-47H219v-98h249l-17-47H219v-98h196l-18-47H219V528c0-53-43-96-95-96v1318c0 799 650 1449 1449 1449s1449-650 1449-1449V433c-53 0-95 43-95 95zM1828 1999c6 0 11 5 11 11 1 6-4 11-10 11-5 0-11-5-11-11s4-11 10-11zm-172-6v-23l1-1 144 25s1 0 1 1v22l-1 1c-1 0-1 0-2-1-2-4-5-6-9-7-9-3-19 1-27 8l-1 1c-4 2-8 4-13 4-3 0-7-1-10-2-3-2-6-4-7-8-2-4-2-8 0-12s7-7 11-7c2 0 4 1 6 2s4 3 5 5c0 2 0 4-1 7-1 2-3 3-6 3-1 0-2 0-3-1-1 0-3 0-3 1-1 1-1 2 0 3h1c2 2 5 2 8 1 4-1 6-3 7-5 2-4 2-7 1-11-1-3-4-6-7-7-2-1-5-2-8-2-5 0-9 2-13 6h-1c-3-6-9-10-16-10-2 0-3 1-5 1-3 1-6 3-8 6-2 4-2 7-1 10 0 2 1 3 2 4 3 3 8 5 13 4l1-1v-2c0-1-2-2-3-1h-2c-3 0-6-2-7-5 0-2 0-4 1-6 1-3 3-4 6-5h3c6 0 10 3 12 8 1 4 1 9-2 13-2 3-5 5-8 6-3 0-5 1-7 1-8 0-16-6-19-13v-1c-2-8-10-14-17-15h-3c-4 0-8 1-11 4-1 0-1 1-2 0v-1zm-34-25c6 0 11 4 11 10 1 6-4 11-9 11-6 0-11-5-12-11 0-6 4-10 10-10zm-360 75v-1l78-52v23c-2-2-5-2-7-1-1 0-1 0-2 1-4 2-8 9-10 15v1c-1 6-6 12-10 14h-3c-2 0-3-1-4-2-1-2-2-6-1-9 1-4 3-8 6-9h2c1 0 2 1 2 2 1 1 1 2 0 4 0 2-1 4-3 5h-1c-1 0-2 1-2 2v2c0 1 1 1 2 1 2 0 6-3 7-6 1-1 1-2 1-3 1-3 1-6 0-9-1-2-3-3-5-3-1 0-2 0-3 1-4 1-7 5-9 10-2-2-5-2-8-1-1 0-3 2-4 3-2 2-4 5-4 8-1 3-1 6 0 8s2 3 4 3h1c1 0 3-1 5-2v-1c1-1 1-2 0-3 0-1-1-1-2 0s-1 1-2 1h-1c-1 0-1 0-1-1-1-1-1-3-1-5 1-1 2-3 3-4s2-2 3-2c2-1 4-1 5 2 1 2 1 6 0 9s-3 6-4 7c-2 2-4 3-5 4-2 1-5 1-7-1-4-4-11-5-15-1-3 2-4 4-6 7l1-17zm-24 17c2-5 6-8 10-8s6 3 5 8c-2 4-6 7-10 7s-7-3-5-7zm335 1044c-186 0-364-38-525-106h1050c-162 68-339 106-525 106zm625-154H948c-56-29-109-61-159-97h1568c-51 36-104 68-159 97zM1761 0c-67 0-132 18-188 53-57-35-121-53-189-53H123v95h1261c58 0 114 19 160 53l29 22 28-22c47-34 102-53 160-53h1261V0H1761zM4694 1526c-4-6-11-13-26-14-4-2-8-2-12 0h-227c-23 0-39 12-41 29l-258 803-23 77-22-77-277-802c-6-19-19-30-38-30h-236c-15 0-23 7-27 11-4 6-8 16-3 32l422 1102c32 86 93 131 177 131h5c84 0 143-43 176-127l411-1106c6-14 2-24-1-29zM5534 1603c-87-70-211-105-367-105-158 0-303 34-428 101-15 7-20 17-22 24-3 11-1 21 6 31l78 155c9 21 24 24 31 24 9 0 18-4 25-9 84-49 183-73 302-73 152 0 226 62 226 188v58c-66-28-163-42-286-42-141 0-259 33-350 99-101 75-152 179-152 308 0 137 51 243 154 314 85 60 197 91 331 91h407c54 0 99-17 132-51 35-35 53-81 53-138v-656c0-139-47-247-140-319zm-149 644v275h-272c-154 0-230-55-230-169 0-102 78-152 237-152 112 0 201 16 265 46zM6653 2140c-58-49-155-93-296-134-112-32-183-59-217-84-34-21-49-48-49-86 0-24 0-99 171-99 113 0 206 34 275 100 7 7 15 10 24 10 12 0 23-7 29-13 1 0 1-1 2-1l124-127c4-5 17-22-3-50-86-113-237-171-448-171-136 0-247 30-331 89-91 65-137 154-137 264 0 111 40 202 120 270 67 56 178 108 331 154 93 27 150 49 181 68 38 23 56 50 56 87 0 38-20 66-58 86-38 22-89 33-152 33-144 0-261-44-345-128-9-11-18-13-25-13-10 0-20 6-28 16l-131 145c-2 1-3 3-3 5-6 15-4 28 8 43 115 125 286 189 509 189 140 0 258-31 350-92 102-70 154-167 154-289 0-116-37-207-111-272zM7697 2140c-59-49-156-93-296-134-113-32-184-59-218-84-33-21-49-48-49-86 0-24 0-99 171-99 113 0 206 34 275 100 8 7 16 10 24 10 13 0 23-7 30-13l1-1 124-127c4-5 18-22-2-50-87-113-237-171-449-171-135 0-247 30-331 89-90 65-136 154-136 264 0 111 40 202 119 270 67 56 179 108 331 154 94 27 151 49 181 68 38 23 56 50 56 87 0 38-19 66-57 86-39 22-90 33-152 33-144 0-261-44-346-128-8-10-18-13-24-13-10 0-20 6-29 16l-131 145c-1 1-2 3-3 5-9 21 4 37 9 43 114 125 285 189 508 189 141 0 259-31 350-92 103-70 155-167 155-289 0-116-37-207-111-272zM8446 1484c-173 0-317 58-428 174-117 121-176 283-176 482 0 196 62 358 183 482 112 113 251 171 412 171 179 0 328-59 442-175 118-121 178-284 178-483 0-198-62-359-183-478-113-115-257-173-428-173zm-224 361c56-62 130-94 220-94 94 0 170 32 226 95 1 0 1 1 1 1 63 67 94 164 94 288 0 130-31 231-94 298-59 63-133 94-227 94-86 0-159-33-217-97-64-72-95-169-95-295 0-125 31-223 92-290zM10125 1512c-4-2-9-2-13 0h-214c-23 0-37 13-37 35v731c0 82-17 142-50 179-35 42-94 63-180 63-154 0-228-77-228-235v-733c0-30-20-40-37-40h-217c-24 0-38 15-38 40v768c0 150 46 267 138 348 91 78 218 118 378 118 161 0 288-40 380-120 97-84 146-202 146-352v-767c0-20-11-32-28-35zM10970 2285c81-23 148-68 200-134 57-72 86-158 86-257 0-128-47-227-139-295-78-57-179-86-300-86h-418c-95 0-145 51-145 147v1073c0 25 15 34 29 34h219c18 0 31-14 31-34v-417h141l332 433c5 11 17 18 31 18h246c15 0 22-7 25-13 4-5 7-15-2-32l-336-437zm4-377c0 56-15 96-45 120-34 24-91 37-169 37h-227v-300h239c136 0 202 47 202 143z"/><path class="fil2" d="M12140 1603c-87-70-211-105-366-105-159 0-303 34-429 101-12 6-19 14-22 24-3 11-1 21 6 31l78 155c9 21 24 24 32 24s17-4 24-9c84-49 183-73 302-73 152 0 226 62 226 188v58c-67-28-161-42-285-42-142 0-260 33-351 99-101 75-152 179-152 308 0 137 52 243 154 314 85 60 197 91 331 91h407c54 0 99-17 132-51 35-35 53-81 53-138v-656c0-140-47-247-140-319zm-149 644v275h-272c-154 0-230-55-230-169 0-102 78-152 237-152 112 0 201 16 265 46zM13259 2140c-58-49-155-93-296-134-112-32-183-59-217-84-34-21-49-48-49-86 0-24 0-99 171-99 113 0 206 34 275 100 7 7 15 10 24 10 12 0 23-7 29-13 1 0 1-1 2-1l123-127c5-5 19-22-1-50-87-113-238-171-449-171-136 0-247 30-331 89-91 65-137 154-137 264 0 111 40 202 120 270 67 56 178 108 331 154 93 27 151 49 181 68 38 23 56 50 56 87 0 38-19 66-58 86-38 22-89 33-151 33-145 0-262-44-346-128-8-10-18-13-25-13-10 0-20 6-28 16l-131 145c-2 1-3 3-3 5-9 21 3 37 8 43 115 125 286 189 509 189 140 0 258-31 350-92 102-70 154-167 154-289 0-116-37-207-111-272zM3994 624c-40 0-68 33-68 81v343c0 73-69 144-141 145h-27c-72 0-140-71-140-145V705c0-48-28-81-68-81-27 0-48 21-48 47 0 17 9 32 23 40v338c0 124 111 236 233 236h27c122 0 234-113 234-237V711c14-8 23-23 23-40 0-26-21-47-48-47zM4675 671c0-26-21-47-48-47-40 0-67 33-67 81v379l-324-424c-10-12-27-36-61-36-27 0-48 21-48 47 0 17 9 32 24 40v488c-15 8-24 23-24 40 0 26 21 46 48 46 40 0 68-33 68-80V841l-1-16 330 430c15 20 33 30 55 30 27 0 48-20 48-46 0-17-9-32-23-40V711c14-8 23-23 23-40zM4834 624c-25 0-46 22-46 47v568c0 25 21 46 46 46 26 0 46-21 46-46V671c0-26-20-47-46-47zM5499 624c-29 0-54 19-66 48l-165 429-4 12-168-441c-11-29-37-48-66-48s-51 20-51 48c0 23 14 40 35 43l206 535c6 21 24 35 45 35 20 0 38-14 44-34l206-534c21-5 35-22 35-45 0-28-21-48-51-48zM6064 1193h-330v-184h260c26 0 46-20 46-46s-21-46-46-46h-260V717h313c25 0 46-20 46-46s-21-47-46-47h-381c-27 0-48 21-48 47 0 17 9 32 23 40v488c-14 8-23 23-23 40 0 26 21 46 48 46h398c25 0 46-21 46-47 0-25-21-45-46-45zM6650 1189l-112-192c70-29 120-101 120-178 0-107-88-195-195-195h-239c-27 0-48 21-48 47 0 17 9 32 24 40v489c-15 8-24 23-24 40 0 26 21 46 48 46 40 0 68-33 68-80v-194h148l131 230c15 26 41 43 67 43 31 0 55-22 55-51 0-24-20-45-43-45zm-86-370c0 55-45 100-101 100h-171V717h171c56 0 101 46 101 102zM6987 914c-88-30-147-60-147-110 0-63 68-92 131-92 38 0 84 16 113 39 9 8 19 11 30 11 25 0 47-20 47-45 0-14-8-28-20-38-47-38-109-59-173-59-107 0-221 64-221 182 0 116 112 168 197 196 87 30 155 57 155 115 0 55-72 84-143 84-47 0-95-13-127-36-7-5-18-11-34-11-28 0-45 23-45 45 0 16 8 30 22 40 52 34 122 55 184 55 113 0 235-56 235-178 0-129-123-170-204-198zM7316 624c-26 0-47 22-47 47v568c0 25 21 46 47 46 25 0 46-21 46-46V671c0-26-21-47-46-47zM7736 624h-214c-27 0-48 21-48 47 0 17 9 32 23 40v488c-14 8-23 23-23 40 0 26 21 46 48 46h214c190-2 292-172 292-330 0-160-102-331-292-331zm200 331c0 118-69 238-200 238h-146V717h146c131 3 200 122 200 238zM8576 1193l-201-539c-7-21-27-34-50-34s-42 13-49 34l-201 538c-22 6-36 24-36 46 0 26 23 47 51 47 36 0 60-29 71-56l43-117h242l43 117c11 27 35 56 71 56 29 0 51-21 51-47 0-22-14-40-35-45zm-163-174h-176l83-215 5-18 88 233zM8929 624h-214c-27 0-48 21-48 47 0 17 9 32 23 40v488c-14 8-23 23-23 40 0 26 21 46 48 46h214c190-2 292-172 292-330 0-160-102-331-292-331zm200 331c0 118-69 238-200 238h-146V717h146c131 3 200 122 200 238zM9743 1193h-330v-184h261c26 0 46-20 46-46s-21-46-46-46h-261V717h313c26 0 47-20 47-46s-21-47-47-47h-380c-27 0-48 21-48 47 0 17 9 32 23 40v488c-14 8-23 23-23 40 0 26 21 46 48 46h397c26 0 47-21 47-47 0-25-21-45-47-45zM10414 624h-215c-27 0-48 21-48 47 0 17 9 32 23 40v488c-14 8-23 23-23 40 0 26 21 46 48 46h215c189-2 291-172 291-330 0-160-102-331-291-331zm199 331c0 118-69 238-199 238h-147V717h146c131 3 200 122 200 238zM11228 1193h-330v-184h260c26 0 46-20 46-46s-21-46-46-46h-260V717h313c26 0 46-20 46-46s-21-47-46-47h-381c-27 0-48 21-48 47 0 17 9 32 23 40v488c-14 8-23 23-23 40 0 26 21 46 48 46h398c25 0 46-21 46-47 0-25-20-45-46-45z"/></g></g></svg>